<svg width="680" height="200" viewBox="0 0 680 200" xmlns="http://www.w3.org/2000/svg">
  <!-- Fondo transparente, letras NEGRAS -->

  <!-- C1 -->
  <rect x="32" y="20" width="54" height="16" fill="#000"/>
  <rect x="32" y="154" width="54" height="16" fill="#000"/>
  <rect x="32" y="20" width="16" height="150" fill="#000"/>

  <!-- E -->
  <rect x="90" y="20" width="54" height="16" fill="#000"/>
  <rect x="90" y="154" width="54" height="16" fill="#000"/>
  <rect x="90" y="20" width="16" height="150" fill="#000"/>
  <rect x="90" y="87" width="40" height="14" fill="#000"/>

  <!-- D -->
  <rect x="148" y="20" width="16" height="150" fill="#000"/>
  <rect x="148" y="20" width="38" height="16" fill="#000"/>
  <rect x="148" y="154" width="38" height="16" fill="#000"/>
  <rect x="170" y="36" width="16" height="118" fill="#000"/>
  <polygon points="186,36 202,36 202,154 186,154" fill="#000"/>

  <!-- R -->
  <rect x="206" y="20" width="16" height="150" fill="#000"/>
  <rect x="206" y="20" width="46" height="16" fill="#000"/>
  <rect x="206" y="87" width="46" height="14" fill="#000"/>
  <rect x="236" y="36" width="16" height="51" fill="#000"/>
  <polygon points="252,101 268,101 268,170 252,170" fill="#000"/>
  <polygon points="236,87 252,87 268,101 252,101" fill="#000"/>

  <!-- I -->
  <rect x="272" y="20" width="16" height="150" fill="#000"/>
  <rect x="264" y="20" width="32" height="14" fill="#000"/>
  <rect x="264" y="156" width="32" height="14" fill="#000"/>

  <!-- C2 -->
  <rect x="300" y="20" width="54" height="16" fill="#000"/>
  <rect x="300" y="154" width="54" height="16" fill="#000"/>
  <rect x="300" y="20" width="16" height="150" fill="#000"/>

  <!-- C3 -->
  <rect x="358" y="20" width="54" height="16" fill="#000"/>
  <rect x="358" y="154" width="54" height="16" fill="#000"/>
  <rect x="358" y="20" width="16" height="150" fill="#000"/>

  <!-- R -->
  <rect x="416" y="20" width="16" height="150" fill="#000"/>
  <rect x="416" y="20" width="46" height="16" fill="#000"/>
  <rect x="416" y="87" width="46" height="14" fill="#000"/>
  <rect x="446" y="36" width="16" height="51" fill="#000"/>
  <polygon points="462,101 478,101 478,170 462,170" fill="#000"/>
  <polygon points="446,87 462,87 478,101 462,101" fill="#000"/>

  <!-- E -->
  <rect x="482" y="20" width="54" height="16" fill="#000"/>
  <rect x="482" y="154" width="54" height="16" fill="#000"/>
  <rect x="482" y="20" width="16" height="150" fill="#000"/>
  <rect x="482" y="87" width="40" height="14" fill="#000"/>

  <!-- E -->
  <rect x="540" y="20" width="54" height="16" fill="#000"/>
  <rect x="540" y="154" width="54" height="16" fill="#000"/>
  <rect x="540" y="20" width="16" height="150" fill="#000"/>
  <rect x="540" y="87" width="40" height="14" fill="#000"/>

  <!-- D -->
  <rect x="598" y="20" width="16" height="150" fill="#000"/>
  <rect x="598" y="20" width="38" height="16" fill="#000"/>
  <rect x="598" y="154" width="38" height="16" fill="#000"/>
  <rect x="620" y="36" width="16" height="118" fill="#000"/>
  <polygon points="636,36 652,36 652,154 636,154" fill="#000"/>
</svg>
